<svg width="103" height="103" viewBox="0 0 103 103" fill="none" xmlns="http://www.w3.org/2000/svg">
<path fill-rule="evenodd" clip-rule="evenodd" d="M52.1664 0.149743C80.2219 0.506569 102.855 23.3606 102.855 51.5008C102.855 79.4218 80.5728 102.138 52.8205 102.839L52.1636 102.852L51.4984 102.855C23.1365 102.854 0.144666 79.8628 0.144531 51.5008C0.144561 23.1386 23.1365 0.146236 51.4984 0.145264L52.1664 0.149743ZM51.5001 8.47754C27.7393 8.47773 8.47685 27.7399 8.47682 51.5008V51.503L8.48018 52.0534V52.0562C8.77784 75.561 27.9248 94.5232 51.5001 94.5234C75.2609 94.5233 94.5232 75.2615 94.5233 51.5008V51.4985L94.52 50.9475V50.9447L94.5099 50.3948C93.9233 27.1449 74.8913 8.47766 51.5001 8.47754Z" fill="#FAF8F5"/>
<path d="M51.5006 0.145264C52.8887 0.145276 54.2645 0.20069 55.6248 0.308773L55.6645 0.311573V54.9081L56.4367 53.0418C62.8685 37.497 72.4608 23.591 84.412 12.1263L84.4389 12.1L84.468 12.124L84.4686 12.1246C86.8101 14.0872 88.9743 16.2546 90.9328 18.5995L90.9592 18.6314L90.9295 18.6588C77.4128 30.9822 67.8626 45.1341 61.9737 61.8926L61.3941 63.5417L62.635 62.3103C71.9896 53.0285 84.8706 47.2938 99.0899 47.2937C99.9881 47.2938 100.882 47.3167 101.769 47.3621L102.659 47.4153L102.695 47.4181L102.698 47.455C102.765 48.3237 102.811 49.1987 102.835 50.079L102.851 50.961L102.853 51.4688C102.853 51.9352 102.846 52.4568 102.834 52.9959L102.804 53.8173C102.767 54.6374 102.712 55.4531 102.637 56.2627L102.633 56.3047L102.591 56.3013C101.44 56.2095 100.276 56.1617 99.1011 56.1614H99.0949L99.0882 56.1608C75.3706 55.2236 55.6646 75.0677 55.6645 99.0513C55.6645 100.246 55.7127 101.429 55.8073 102.599L55.8107 102.641L55.7693 102.645C54.1923 102.775 52.9703 102.846 51.7465 102.854C51.6752 102.854 51.6012 102.855 51.5292 102.855C51.4377 102.855 51.3454 102.855 51.2537 102.854H51.2526L51.0644 102.853C49.9357 102.839 48.7482 102.77 47.2298 102.645L47.1872 102.641L47.1911 102.6C47.2858 101.43 47.3339 100.246 47.3339 99.0513C47.3339 75.0677 27.6278 55.2236 3.9103 56.1608L3.90358 56.1614H3.89686C3.01747 56.1616 2.1438 56.1882 1.27734 56.2403L0.409395 56.3013L0.366838 56.3041L0.363478 56.2627C0.219322 54.6948 0.144546 53.106 0.144531 51.5008C0.144531 50.1392 0.198387 48.789 0.302441 47.4539L0.305241 47.4175L0.342199 47.4153C1.51986 47.3351 2.70907 47.2938 3.90694 47.2937L4.60746 47.2982C18.5492 47.4829 31.1613 53.181 40.3624 62.3103L41.6038 63.5417L41.0242 61.8926C35.1355 45.1345 25.5858 30.9831 12.0696 18.6599L12.0393 18.6325L12.0656 18.6017L12.0662 18.6012C14.0247 16.2562 16.1891 14.0883 18.5304 12.1257L18.5596 12.1011L18.587 12.1274C30.5379 23.592 40.1301 37.4973 46.5617 53.0418L47.3339 54.9081V0.312133L47.3737 0.309333L47.8844 0.271256C49.0788 0.188038 50.2851 0.145269 51.5006 0.145264Z" fill="#FAF8F5"/>
<path fill-rule="evenodd" clip-rule="evenodd" d="M99.9883 47.334C100.586 47.3443 101.181 47.3653 101.773 47.3956L102.664 47.4483L102.697 47.4505L102.7 47.488C102.803 48.8117 102.855 50.1496 102.855 51.4996C102.855 52.9351 102.795 54.3574 102.68 55.7632L102.676 55.8046L102.612 55.7996L102.576 56.196C100.345 80.7724 80.7788 100.34 56.2035 102.575L55.8071 102.611L55.8121 102.675L55.7712 102.678C54.5392 102.78 53.2935 102.839 52.0385 102.852L51.4992 102.855L50.9606 102.852C49.7055 102.839 48.4598 102.78 47.2278 102.678L47.1819 102.674L47.1869 102.61L46.7944 102.575C22.2191 100.34 2.65298 80.7725 0.422001 56.196L0.386163 55.7996L0.321767 55.8046L0.318967 55.7637C0.203426 54.3578 0.14258 52.935 0.142578 51.4996C0.142582 50.1497 0.195956 48.8119 0.298248 47.488L0.301048 47.4505L0.337446 47.4483C1.51685 47.3679 2.70809 47.3268 3.90778 47.3268C24.8859 47.3271 42.9471 59.8093 51.0748 77.7508L51.4959 78.6809L51.497 78.6764L51.4998 78.6848L51.9231 77.7508C60.0505 59.8098 78.1105 47.3279 99.0879 47.3268L99.9883 47.334ZM8.83436 56.7566C11.0897 76.5383 26.7745 91.918 46.5598 94.1768L47.066 94.2344L47.0038 93.7288C44.5797 74.023 28.9054 58.2555 9.27281 56.3119L8.77836 56.2627L8.83436 56.7566ZM93.7245 56.3119C74.0921 58.2556 58.4177 74.0231 55.9935 93.7288L55.9314 94.2344L56.4376 94.1768C76.223 91.9181 91.9076 76.5384 94.163 56.7566L94.2196 56.2627L93.7245 56.3119Z" fill="#FAF8F5"/>
</svg>
